<?xml version="1.0" standalone="no"?>
<!DOCTYPE svg PUBLIC "-//W3C//DTD SVG 20010904//EN"
 "http://www.w3.org/TR/2001/REC-SVG-20010904/DTD/svg10.dtd">
<svg version="1.0" xmlns="http://www.w3.org/2000/svg"
 width="100.000000pt" height="100.000000pt" viewBox="0 0 100.000000 100.000000"
 preserveAspectRatio="xMidYMid meet">

<g transform="translate(0.000000,100.000000) scale(0.100000,-0.100000)"
fill="#000000" stroke="none">
<path d="M161 972 c-6 -12 -21 -22 -31 -22 -24 0 -26 -15 -4 -24 12 -4 14 -14
9 -36 -6 -29 -6 -30 18 -19 18 8 30 8 43 0 16 -9 14 -10 -14 -11 -25 0 -43 -9
-68 -34 l-34 -34 2 -354 3 -353 178 -3 177 -2 0 100 0 100 60 0 60 0 0 -100 0
-100 178 2 177 3 3 353 2 354 -34 34 c-25 25 -43 34 -68 35 -32 0 -32 1 -10
12 18 8 29 8 44 -2 19 -12 19 -10 13 17 -4 22 -2 31 9 35 22 9 20 27 -3 27
-10 0 -25 10 -33 22 l-15 22 -12 -22 c-6 -12 -21 -22 -33 -22 -20 0 -20 -1 -3
-20 12 -13 15 -27 11 -45 -5 -21 -12 -25 -41 -25 -29 0 -36 4 -41 25 -4 18 -1
32 11 45 17 19 17 20 -2 20 -11 0 -27 10 -35 22 l-15 22 -12 -22 c-8 -14 -21
-22 -39 -22 l-27 -1 23 -19 c17 -14 21 -25 16 -44 l-6 -26 -118 0 -118 0 -6
26 c-5 19 -1 30 16 44 l23 19 -27 1 c-18 0 -31 8 -39 22 l-12 22 -15 -22 c-8
-12 -24 -22 -35 -22 -19 0 -19 -1 -2 -20 12 -13 15 -27 11 -45 -5 -21 -12 -25
-41 -25 -29 0 -36 4 -41 25 -4 18 -1 32 11 45 17 19 17 20 -2 20 -11 0 -27 10
-35 22 l-15 22 -12 -22z m204 -102 c4 -6 -9 -10 -32 -10 -28 0 -34 3 -23 10
20 13 47 13 55 0z m325 0 c11 -7 5 -10 -23 -10 -23 0 -36 4 -32 10 8 13 35 13
55 0z m-370 -150 l0 -40 -60 0 -60 0 0 40 0 40 60 0 60 0 0 -40z m240 0 l0
-40 -60 0 -60 0 0 40 0 40 60 0 60 0 0 -40z m240 0 l0 -40 -60 0 -60 0 0 40 0
40 60 0 60 0 0 -40z m-480 -160 l0 -40 -60 0 -60 0 0 40 0 40 60 0 60 0 0 -40z
m240 0 l0 -40 -60 0 -60 0 0 40 0 40 60 0 60 0 0 -40z m240 0 l0 -40 -60 0
-60 0 0 40 0 40 60 0 60 0 0 -40z m-480 -160 l0 -40 -60 0 -60 0 0 40 0 40 60
0 60 0 0 -40z m240 0 l0 -40 -60 0 -60 0 0 40 0 40 60 0 60 0 0 -40z m240 0
l0 -40 -60 0 -60 0 0 40 0 40 60 0 60 0 0 -40z m-480 -160 l0 -40 -60 0 -60 0
0 40 0 40 60 0 60 0 0 -40z m480 0 l0 -40 -60 0 -60 0 0 40 0 40 60 0 60 0 0
-40z"/>
<path d="M485 970 c-4 -13 -15 -20 -32 -20 -25 0 -25 -1 -10 -18 10 -10 17
-27 17 -38 0 -16 7 -19 40 -19 33 0 40 3 40 19 0 11 7 28 17 38 15 17 15 18
-10 18 -17 0 -28 7 -32 20 -3 11 -10 20 -15 20 -5 0 -12 -9 -15 -20z"/>
</g>
</svg>
