<?xml version="1.0" standalone="no"?>
<!DOCTYPE svg PUBLIC "-//W3C//DTD SVG 20010904//EN"
 "http://www.w3.org/TR/2001/REC-SVG-20010904/DTD/svg10.dtd">
<svg version="1.0" xmlns="http://www.w3.org/2000/svg"
 width="64.000000pt" height="64.000000pt" viewBox="0 0 64.000000 64.000000"
 preserveAspectRatio="xMidYMid meet">

<g transform="translate(0.000000,64.000000) scale(0.100000,-0.100000)"
fill="#000000" stroke="none">
<path d="M300 548 c0 -24 -3 -60 -6 -80 -7 -37 -6 -38 26 -38 32 0 33 1 26 38
-3 20 -6 56 -6 80 0 35 -3 42 -20 42 -17 0 -20 -7 -20 -42z"/>
<path d="M269 395 c-15 -8 -29 -22 -33 -30 -5 -14 -24 -16 -118 -14 -90 1
-113 -1 -113 -12 0 -8 14 -21 32 -29 26 -13 30 -19 26 -41 -6 -31 25 -69 57
-69 25 0 60 34 60 59 0 25 36 17 67 -15 25 -27 63 -39 99 -30 14 4 35 17 47
30 31 32 67 40 67 15 0 -25 35 -59 60 -59 32 0 63 38 57 69 -4 22 0 28 26 41
18 8 32 21 32 29 0 11 -23 13 -113 12 -94 -2 -113 0 -118 14 -8 20 -56 45 -86
45 -13 -1 -35 -7 -49 -15z m94 -49 c8 -20 -2 -26 -44 -26 -38 0 -55 12 -44 30
10 16 82 12 88 -4z m-227 -77 c10 -17 -13 -36 -27 -22 -12 12 -4 33 11 33 5 0
12 -5 16 -11z m400 0 c10 -17 -13 -36 -27 -22 -12 12 -4 33 11 33 5 0 12 -5
16 -11z"/>
</g>
</svg>
